<svg xmlns="http://www.w3.org/2000/svg" version="1.1" xmlns:xlink="http://www.w3.org/1999/xlink" xmlns:svgjs="http://svgjs.dev/svgjs" width="1000" height="1000" viewBox="0 0 1000 1000"><rect width="1000" height="1000" fill="#ffffff"></rect><g transform="matrix(0.7,0,0,0.7,149.57575757575756,320.4015847140429)"><svg viewBox="0 0 396 203" data-background-color="#ffffff" preserveAspectRatio="xMidYMid meet" height="512" width="1000" xmlns="http://www.w3.org/2000/svg" xmlns:xlink="http://www.w3.org/1999/xlink"><g id="tight-bounds" transform="matrix(1,0,0,1,0.2400000000000091,0.22566490806164552)"><svg viewBox="0 0 395.52 202.5486701838767" height="202.5486701838767" width="395.52"><g><svg viewBox="0 0 395.52 202.5486701838767" height="202.5486701838767" width="395.52"><g><svg viewBox="0 0 395.52 202.5486701838767" height="202.5486701838767" width="395.52"><g id="textblocktransform"><svg viewBox="0 0 395.52 202.5486701838767" height="202.5486701838767" width="395.52" id="textblock"><g><svg viewBox="0 0 395.52 160.48957362952345" height="160.48957362952345" width="395.52"><g transform="matrix(1,0,0,1,0,0)"><svg width="395.52" viewBox="2.3999996185302734 -34.150001525878906 279.1000061035156 110.05000305175781" height="160.48957362952345" data-palette-color="#0718c4"><svg></svg><svg></svg><svg></svg><g class="undefined-text-0" data-fill-palette-color="primary" id="text-0"><path xmlns="http://www.w3.org/2000/svg" d="M7.9-14.2v14.2h-4.05v-33.7h5.1l8.45 14.2 8.55 14.6c-0.133-3.233-0.2-8.083-0.2-14.55v0-14.25h4.05v33.7h-5.1l-8.45-14.1c-1.7-2.833-3.267-5.477-4.7-7.93-1.433-2.447-2.45-4.203-3.05-5.27v0l-0.85-1.55c0.167 3.467 0.25 8.35 0.25 14.65zM50.45-12.55v12.55h-4.05v-12.5l-11.45-21.2h4.7l2.55 4.95c1.733 3.333 3.117 6.05 4.15 8.15 1.033 2.1 1.633 3.367 1.8 3.8v0l0.25 0.6c0.3-0.833 2.417-5.017 6.35-12.55v0l2.55-4.95h4.7zM91.3-5.95v4.25c-2.067 1.4-4.9 2.1-8.5 2.1v0c-5.067 0-9.183-1.56-12.35-4.68-3.167-3.113-4.75-7.353-4.75-12.72v0c0-5.067 1.607-9.193 4.82-12.38 3.22-3.18 7.263-4.77 12.13-4.77v0c3.5 0 6.35 0.6 8.55 1.8v0 4.15c-1.467-0.767-2.783-1.317-3.95-1.65-1.167-0.333-2.7-0.5-4.6-0.5v0c-3.633 0-6.657 1.233-9.07 3.7-2.42 2.467-3.63 5.683-3.63 9.65v0c0 4.133 1.2 7.433 3.6 9.9 2.4 2.467 5.583 3.7 9.55 3.7v0c3.2 0 5.933-0.85 8.2-2.55z" fill="#0718c4" fill-rule="nonzero" stroke="none" stroke-width="1" stroke-linecap="butt" stroke-linejoin="miter" stroke-miterlimit="10" stroke-dasharray="" stroke-dashoffset="0" font-family="none" font-weight="none" font-size="none" text-anchor="none" style="mix-blend-mode: normal" data-fill-palette-color="primary" opacity="1"></path><path xmlns="http://www.w3.org/2000/svg" d="M28 31.8v4.25c-2.067 1.4-4.9 2.1-8.5 2.1v0c-5.067 0-9.183-1.56-12.35-4.68-3.167-3.113-4.75-7.353-4.75-12.72v0c0-5.067 1.61-9.193 4.83-12.38 3.213-3.18 7.253-4.77 12.12-4.77v0c3.5 0 6.35 0.6 8.55 1.8v0 4.15c-1.467-0.767-2.783-1.317-3.95-1.65-1.167-0.333-2.7-0.5-4.6-0.5v0c-3.633 0-6.657 1.233-9.07 3.7-2.42 2.467-3.63 5.683-3.63 9.65v0c0 4.133 1.2 7.433 3.6 9.9 2.4 2.467 5.583 3.7 9.55 3.7v0c3.2 0 5.933-0.85 8.2-2.55zM62.75 20.75v0c0 5.3-1.357 9.523-4.07 12.67-2.72 3.153-6.397 4.73-11.03 4.73v0c-4.567 0-8.233-1.583-11-4.75-2.767-3.167-4.15-7.383-4.15-12.65v0c0-5.3 1.36-9.517 4.08-12.65 2.713-3.133 6.387-4.7 11.02-4.7v0c4.733 0 8.443 1.557 11.13 4.67 2.68 3.12 4.02 7.347 4.02 12.68zM36.75 20.75v0c0 4.167 0.993 7.467 2.98 9.9 1.98 2.433 4.62 3.65 7.92 3.65v0c3.433 0 6.093-1.2 7.98-3.6 1.88-2.4 2.82-5.717 2.82-9.95 0-4.233-0.95-7.55-2.85-9.95-1.9-2.4-4.567-3.6-8-3.6v0c-3.4 0-6.057 1.207-7.97 3.62-1.92 2.42-2.88 5.73-2.88 9.93zM73.6 24.45l-0.95 13.3h-4.05l2.45-33.7h5.15l4.45 12.3 5.4 15.7c1.933-5.467 3.833-10.7 5.7-15.7v0l4.65-12.3h5.15l2.95 33.7h-4.05l-1.15-13.3-1.2-14.95c-1.767 4.933-3.583 9.917-5.45 14.95v0l-4.7 12.55h-3.85l-4.45-12.55-5.1-14.65c0 1.3-0.317 6.183-0.95 14.65zM116.45 24.45l-0.95 13.3h-4.05l2.45-33.7h5.15l4.45 12.3 5.4 15.7c1.933-5.467 3.833-10.7 5.7-15.7v0l4.65-12.3h5.15l2.95 33.7h-4.05l-1.15-13.3-1.2-14.95c-1.767 4.933-3.583 9.917-5.45 14.95v0l-4.7 12.55h-3.85l-4.45-12.55-5.1-14.65c0 1.3-0.317 6.183-0.95 14.65zM179.25 4.05v20.9c0 4.333-1.093 7.617-3.28 9.85-2.18 2.233-5.22 3.35-9.12 3.35v0c-3.833 0-6.833-1.093-9-3.28-2.167-2.18-3.25-5.353-3.25-9.52v0-21.3h4.05v21.25c0 3.1 0.74 5.383 2.22 6.85 1.487 1.467 3.48 2.2 5.98 2.2v0c5.567 0 8.35-3.1 8.35-9.3v0-21zM190.95 23.55v14.2h-4.05v-33.7h5.1l8.45 14.2 8.55 14.6c-0.133-3.233-0.2-8.083-0.2-14.55v0-14.25h4.05v33.7h-5.1l-8.45-14.1c-1.7-2.833-3.267-5.477-4.7-7.93-1.433-2.447-2.45-4.203-3.05-5.27v0l-0.85-1.55c0.167 3.467 0.25 8.35 0.25 14.65zM224.9 4.05v33.7h-4.05v-33.7zM252.2 4.05v3.55h-9.1v30.15h-4.05v-30.15h-9.1v-3.55zM269.95 25.2v12.55h-4.05v-12.5l-11.45-21.2h4.7l2.55 4.95c1.733 3.333 3.117 6.05 4.15 8.15 1.033 2.1 1.633 3.367 1.8 3.8v0l0.25 0.6c0.3-0.833 2.417-5.017 6.35-12.55v0l2.55-4.95h4.7z" fill="#0718c4" fill-rule="nonzero" stroke="none" stroke-width="1" stroke-linecap="butt" stroke-linejoin="miter" stroke-miterlimit="10" stroke-dasharray="" stroke-dashoffset="0" font-family="none" font-weight="none" font-size="none" text-anchor="none" style="mix-blend-mode: normal" data-fill-palette-color="primary" opacity="1"></path><path xmlns="http://www.w3.org/2000/svg" d="M13.1 63.1v0h-5.2v12.4h-4.05v-33.7h8.85c3.9 0 6.977 1.007 9.23 3.02 2.247 2.02 3.37 4.63 3.37 7.83v0c0 3-1.117 5.49-3.35 7.47-2.233 1.987-5.183 2.98-8.85 2.98zM12.75 45.25v0h-4.85v14.4h5.2c2.533 0 4.517-0.657 5.95-1.97 1.433-1.32 2.15-2.997 2.15-5.03v0c0-2.267-0.733-4.067-2.2-5.4-1.467-1.333-3.55-2-6.25-2zM59.9 58.5v0c0 5.3-1.357 9.523-4.07 12.67-2.72 3.153-6.397 4.73-11.03 4.73v0c-4.567 0-8.233-1.583-11-4.75-2.767-3.167-4.15-7.383-4.15-12.65v0c0-5.3 1.36-9.517 4.08-12.65 2.713-3.133 6.387-4.7 11.02-4.7v0c4.733 0 8.443 1.557 11.13 4.67 2.68 3.12 4.02 7.347 4.02 12.68zM33.9 58.5v0c0 4.167 0.993 7.467 2.98 9.9 1.98 2.433 4.62 3.65 7.92 3.65v0c3.433 0 6.093-1.2 7.98-3.6 1.88-2.4 2.82-5.717 2.82-9.95 0-4.233-0.95-7.55-2.85-9.95-1.9-2.4-4.567-3.6-8-3.6v0c-3.4 0-6.06 1.207-7.98 3.62-1.913 2.42-2.87 5.73-2.87 9.93zM74.8 45.3v0h-4.65v13.45h5.1c2.3 0 4.06-0.627 5.28-1.88 1.213-1.247 1.82-2.853 1.82-4.82v0c0-4.5-2.517-6.75-7.55-6.75zM75.4 62.2h-0.4-4.85v13.3h-4.05v-33.7h8.45c3.9 0 6.857 0.917 8.87 2.75 2.02 1.833 3.03 4.367 3.03 7.6v0c-0.067 2.333-0.683 4.317-1.85 5.95-1.167 1.633-2.817 2.783-4.95 3.45v0l8.85 13.95h-4.85zM112.8 41.8v3.55h-9.1v30.15h-4.05v-30.15h-9.1v-3.55zM124.65 61.3v0l-0.65 1.9h11.95l-0.65-1.95-5.25-16.2c-0.4 1.433-2.2 6.85-5.4 16.25zM122.85 66.65l-3 8.85h-4.35l11.75-33.7h5.6l11.55 33.7h-4.35l-2.95-8.85zM168.4 71.85v3.65h-18.4v-33.7h4.05v30.05z" fill="#0718c4" fill-rule="nonzero" stroke="none" stroke-width="1" stroke-linecap="butt" stroke-linejoin="miter" stroke-miterlimit="10" stroke-dasharray="" stroke-dashoffset="0" font-family="none" font-weight="none" font-size="none" text-anchor="none" style="mix-blend-mode: normal" data-fill-palette-color="primary" opacity="1"></path></g></svg></g></svg></g><g transform="matrix(1,0,0,1,0,172.1151705063418)"><svg viewBox="0 0 122.99565036512348 30.43349967753493" height="30.43349967753493" width="122.99565036512348"><g transform="matrix(1,0,0,1,0,0)"><svg width="122.99565036512348" viewBox="3.549999952316284 -38 199.0800018310547 49.45000076293945" height="30.43349967753493" data-palette-color="#0718c4"><path d="M5.65 0L5.65 0Q4.9 0 4.23-0.38 3.55-0.75 3.55-1.5L3.55-1.5 3.55-35.1Q3.55-35.9 4.23-36.23 4.9-36.55 5.65-36.55L5.65-36.55Q6.45-36.55 7-36.25 7.55-35.95 8-35.38 8.45-34.8 8.9-33.9L8.9-33.9 21.3-9.55 21.3-35.1Q21.3-35.85 21.98-36.2 22.65-36.55 23.4-36.55L23.4-36.55Q24.2-36.55 24.85-36.2 25.5-35.85 25.5-35.1L25.5-35.1 25.5-1.5Q25.5-0.75 24.85-0.38 24.2 0 23.4 0L23.4 0Q22.6 0 21.93-0.55 21.25-1.1 20.8-1.9L20.8-1.9 7.75-27.05 7.75-1.5Q7.75-0.75 7.1-0.38 6.45 0 5.65 0ZM40.8 0.4L40.8 0.4Q38.15 0.4 35.9-0.98 33.65-2.35 32.3-4.55 30.95-6.75 30.95-9.3L30.95-9.3 30.95-14.4Q30.95-16.95 32.27-19.13 33.6-21.3 35.85-22.65 38.1-24 40.8-24L40.8-24Q43.45-24 45.7-22.68 47.95-21.35 49.32-19.2 50.7-17.05 50.7-14.4L50.7-14.4 50.7-9.3Q50.7-6.8 49.32-4.58 47.95-2.35 45.7-0.98 43.45 0.4 40.8 0.4ZM40.8-3.35L40.8-3.35Q42.4-3.35 43.67-4.2 44.95-5.05 45.75-6.43 46.55-7.8 46.55-9.3L46.55-9.3 46.55-14.4Q46.55-15.85 45.77-17.2 45-18.55 43.7-19.4 42.4-20.25 40.8-20.25L40.8-20.25Q39.2-20.25 37.9-19.4 36.6-18.55 35.85-17.2 35.1-15.85 35.1-14.4L35.1-14.4 35.1-9.3Q35.1-7.8 35.85-6.43 36.6-5.05 37.9-4.2 39.2-3.35 40.8-3.35ZM57.75 0L57.75 0Q56.85 0 56.27-0.48 55.7-0.95 55.7-1.5L55.7-1.5 55.7-22.25Q55.7-22.9 56.27-23.3 56.85-23.7 57.75-23.7L57.75-23.7Q58.55-23.7 59.1-23.3 59.65-22.9 59.65-22.25L59.65-22.25 59.65-20.2Q60.45-21.65 62.15-22.83 63.85-24 66.34-24L66.34-24Q68.75-24 70.75-22.68 72.75-21.35 73.95-19.2 75.15-17.05 75.15-14.4L75.15-14.4 75.15-1.5Q75.15-0.75 74.5-0.38 73.84 0 73.05 0L73.05 0Q72.3 0 71.65-0.38 71-0.75 71-1.5L71-1.5 71-14.4Q71-15.85 70.22-17.2 69.45-18.55 68.15-19.4 66.84-20.25 65.3-20.25L65.3-20.25Q63.95-20.25 62.7-19.53 61.45-18.8 60.65-17.53 59.85-16.25 59.85-14.4L59.85-14.4 59.85-1.5Q59.85-0.95 59.22-0.48 58.6 0 57.75 0ZM94.39-10.25L81.39-10.25Q80.79-10.25 80.37-10.75 79.94-11.25 79.94-12L79.94-12Q79.94-12.8 80.37-13.3 80.79-13.8 81.39-13.8L81.39-13.8 94.39-13.8Q94.99-13.8 95.44-13.3 95.89-12.8 95.89-12L95.89-12Q95.89-11.25 95.44-10.75 94.99-10.25 94.39-10.25L94.39-10.25ZM102.99 11.45L102.99 11.45Q102.14 11.45 101.57 10.98 100.99 10.5 100.99 9.95L100.99 9.95 100.99-22.25Q100.99-22.9 101.57-23.3 102.14-23.7 102.99-23.7L102.99-23.7Q103.84-23.7 104.39-23.3 104.94-22.9 104.94-22.25L104.94-22.25 104.94-20.2Q105.79-21.65 107.49-22.83 109.19-24 111.64-24L111.64-24Q114.14-24 116.19-22.68 118.24-21.35 119.44-19.2 120.64-17.05 120.64-14.4L120.64-14.4 120.64-9.3Q120.64-6.8 119.42-4.58 118.19-2.35 116.19-0.98 114.19 0.4 111.79 0.4L111.79 0.4Q109.54 0.4 107.74-0.78 105.94-1.95 105.14-3.5L105.14-3.5 105.14 9.95Q105.14 10.5 104.52 10.98 103.89 11.45 102.99 11.45ZM110.79-3.35L110.79-3.35Q112.29-3.35 113.59-4.2 114.89-5.05 115.69-6.45 116.49-7.85 116.49-9.3L116.49-9.3 116.49-14.4Q116.49-15.85 115.69-17.2 114.89-18.55 113.59-19.4 112.29-20.25 110.69-20.25L110.69-20.25Q109.34-20.25 108.07-19.53 106.79-18.8 105.97-17.53 105.14-16.25 105.14-14.4L105.14-14.4 105.14-7.95Q105.14-7.3 105.87-6.2 106.59-5.1 107.87-4.23 109.14-3.35 110.79-3.35ZM127.64 0L127.64 0Q126.79 0 126.21-0.48 125.64-0.95 125.64-1.5L125.64-1.5 125.64-22.25Q125.64-22.9 126.21-23.3 126.79-23.7 127.64-23.7L127.64-23.7Q128.49-23.7 129.04-23.3 129.59-22.9 129.59-22.25L129.59-22.25 129.59-19.9Q130.14-20.95 131.09-21.88 132.04-22.8 133.31-23.4 134.59-24 136.14-24L136.14-24 137.84-24Q138.49-24 138.96-23.45 139.44-22.9 139.44-22.1L139.44-22.1Q139.44-21.35 138.96-20.8 138.49-20.25 137.84-20.25L137.84-20.25 136.14-20.25Q134.54-20.25 133.09-19.35 131.64-18.45 130.71-16.82 129.79-15.2 129.79-12.9L129.79-12.9 129.79-1.5Q129.79-0.95 129.16-0.48 128.54 0 127.64 0ZM150.79 0.4L150.79 0.4Q148.14 0.4 145.89-0.98 143.64-2.35 142.29-4.55 140.94-6.75 140.94-9.3L140.94-9.3 140.94-14.4Q140.94-16.95 142.26-19.13 143.59-21.3 145.84-22.65 148.09-24 150.79-24L150.79-24Q153.44-24 155.69-22.68 157.94-21.35 159.31-19.2 160.69-17.05 160.69-14.4L160.69-14.4 160.69-9.3Q160.69-6.8 159.31-4.58 157.94-2.35 155.69-0.98 153.44 0.4 150.79 0.4ZM150.79-3.35L150.79-3.35Q152.39-3.35 153.66-4.2 154.94-5.05 155.74-6.43 156.54-7.8 156.54-9.3L156.54-9.3 156.54-14.4Q156.54-15.85 155.76-17.2 154.99-18.55 153.69-19.4 152.39-20.25 150.79-20.25L150.79-20.25Q149.19-20.25 147.89-19.4 146.59-18.55 145.84-17.2 145.09-15.85 145.09-14.4L145.09-14.4 145.09-9.3Q145.09-7.8 145.84-6.43 146.59-5.05 147.89-4.2 149.19-3.35 150.79-3.35ZM167.73 0L167.73 0Q166.88 0 166.31-0.4 165.73-0.8 165.73-1.45L165.73-1.45 165.73-28.65Q165.73-31.25 166.93-33.38 168.13-35.5 170.16-36.75 172.18-38 174.58-38L174.58-38 176.33-38Q177.13-38 177.58-37.45 178.03-36.9 178.03-36.15L178.03-36.15Q178.03-35.45 177.58-34.9 177.13-34.35 176.33-34.35L176.33-34.35 175.28-34.35Q173.73-34.35 172.51-33.63 171.28-32.9 170.58-31.68 169.88-30.45 169.88-29L169.88-29 169.88-23.7 176.73-23.7Q177.33-23.7 177.68-23.2 178.03-22.7 178.03-22.05L178.03-22.05Q178.03-21.45 177.68-20.95 177.33-20.45 176.73-20.45L176.73-20.45 169.88-20.45 169.88-1.45Q169.88-0.8 169.23-0.4 168.58 0 167.73 0ZM183.08 0L183.08 0Q182.18 0 181.61-0.48 181.03-0.95 181.03-1.5L181.03-1.5 181.03-22.25Q181.03-22.9 181.61-23.3 182.18-23.7 183.08-23.7L183.08-23.7Q183.93-23.7 184.56-23.3 185.18-22.9 185.18-22.25L185.18-22.25 185.18-1.5Q185.18-0.95 184.56-0.48 183.93 0 183.08 0ZM183.08-30.2L183.08-30.2Q181.98-30.2 181.23-30.93 180.48-31.65 180.48-32.6L180.48-32.6Q180.48-33.55 181.23-34.25 181.98-34.95 183.08-34.95L183.08-34.95Q184.13-34.95 184.88-34.25 185.63-33.55 185.63-32.6L185.63-32.6Q185.63-31.65 184.88-30.93 184.13-30.2 183.08-30.2ZM200.78 0L199.23 0Q195.18 0 193.05-1.8 190.93-3.6 190.93-7.55L190.93-7.55 190.93-33.3Q190.93-33.95 191.58-34.35 192.23-34.75 192.98-34.75L192.98-34.75Q193.78-34.75 194.43-34.35 195.08-33.95 195.08-33.3L195.08-33.3 195.08-23.7 201.38-23.7Q201.98-23.7 202.3-23.2 202.63-22.7 202.63-22.05L202.63-22.05Q202.63-21.4 202.3-20.93 201.98-20.45 201.38-20.45L201.38-20.45 195.08-20.45 195.08-7.55Q195.08-5.4 196-4.53 196.93-3.65 199.23-3.65L199.23-3.65 200.78-3.65Q201.68-3.65 202.13-3.1 202.58-2.55 202.58-1.85L202.58-1.85Q202.58-1.15 202.13-0.58 201.68 0 200.78 0L200.78 0Z" opacity="1" transform="matrix(1,0,0,1,0,0)" fill="#0718c4" class="undefined-text-1" data-fill-palette-color="secondary" id="text-1"></path></svg></g></svg></g></svg></g></svg></g></svg></g><defs></defs></svg><rect width="395.52" height="202.5486701838767" fill="none" stroke="none" visibility="hidden"></rect></g></svg></g></svg>